# AST/ASF file generated using VICON BodyLanguage
# -----------------------------------------------
:version 1.10
:name VICON
:units
  mass 1.0
  length 0.45
  angle deg
:documentation
   .ast/.asf automatically generated from VICON data using
   VICON BodyBuilder and BodyLanguage model FoxedUp or BRILLIANT.MOD
:root
   order TX TY TZ RX RY RZ
   axis XYZ
   position 0 0 0  
   orientation 0 0 0 
:bonedata
  begin
     id 1 
     name lhipjoint
     direction 0.635376 -0.686425 0.353719 
     length 2.47244 
     axis 0 0 0  XYZ
  end
  begin
     id 2 
     name lfemur
     direction 0.34202 -0.939693 0  
     length 7.25268  
     axis 0 0 20  XYZ
    dof rx ry rz
    limits (-160.0 20.0)
           (-70.0 70.0)
           (-60.0 70.0)
  end
  begin
     id 3 
     name ltibia
     direction 0.34202 -0.939693 0   
     length 7.6767   
     axis 0 0 20   XYZ
    dof rx
    limits (-10.0 170.0)
  end
  begin
     id 4 
     name lfoot
     direction 0.0803374 -0.220725 0.972022   
     length 2.22945   
     axis -90 7.62852e-016 20   XYZ
    dof rx rz
    limits (-45.0 90.0)
           (-70.0 20.0)
  end
  begin
     id 5 
     name ltoes
     direction 1.53579e-011 -4.21994e-011 1   
     length 1.11848   
     axis -90 7.62852e-016 20   XYZ
    dof rx
    limits (-90.0 20.0)
  end
  begin
     id 6 
     name rhipjoint
     direction -0.664428 -0.664335 0.342336   
     length 2.55466  
     axis 0 0 0  XYZ 
  end
  begin
     id 7 
     name rfemur
     direction -0.34202 -0.939693 0   
     length 6.83172   
     axis 0 0 -20   XYZ
    dof rx ry rz
    limits (-160.0 20.0)
           (-70.0 70.0)
           (-70.0 60.0)
  end
  begin
     id 8 
     name rtibia
     direction -0.34202 -0.939693 0   
     length 7.62692   
     axis 0 0 -20   XYZ
    dof rx
    limits (-10.0 170.0)
 end
 begin
     id 9 
     name rfoot
     direction -0.0949276 -0.260811 0.960711   
     length 2.19684  
     axis -90 -7.62852e-016 -20   XYZ
    dof rx rz
    limits (-45.0 90.0)
           (-20.0 70.0)
  end
  begin
     id 10 
     name rtoes
     direction -1.53543e-011 -4.2183e-011 1   
     length 1.09848   
     axis -90 -7.62852e-016 -20   XYZ
    dof rx
    limits (-90.0 20.0)
  end
  begin
     id 11 
     name lowerback
     direction 0.0118782 0.999815 -0.0151555   
     length 2.15772   
     axis 0 0 0   XYZ
    dof rx ry rz
    limits (-20.0 45.0)
           (-30.0 30.0)
           (-30.0 30.0)
  end
  begin
     id 12 
     name upperback
     direction 0.00130825 0.999065 0.0432113   
     length 2.14863   
     axis 0 0 0   XYZ
    dof rx ry rz
    limits (-20.0 45.0)
           (-30.0 30.0)
           (-30.0 30.0)
  end
  begin
     id 13 
     name thorax
     direction -0.00347005 0.998773 0.0494011   
     length 2.14936   
     axis 0 0 0   XYZ
    dof rx ry rz
    limits (-20.0 45.0)
           (-30.0 30.0)
           (-30.0 30.0)
  end
  begin
     id 14 
     name lowerneck
     direction -0.0262159 0.99424 0.103921   
     length 1.69373   
     axis 0 0 0   XYZ
    dof rx ry rz
    limits (-20.0 45.0)
           (-30.0 30.0)
           (-30.0 30.0)
  end
  begin
     id 15 
     name upperneck
     direction 0.0353511 0.977394 -0.20845   
     length 1.70857   
     axis 0 0 0   XYZ
    dof rx ry rz
    limits (-20.0 45.0)
           (-30.0 30.0)
           (-30.0 30.0)
  end
  begin
     id 16
     name head
     direction 0.0139214 0.996594 -0.0812836  
     length 1.72777  
     axis 0 0 0   XYZ
    dof rx ry rz
    limits (-20.0 45.0)
           (-30.0 30.0)
           (-30.0 30.0)
  end
  begin
     id 17 
     name lclavicle
     direction 0.841247 0.537205 -0.0609508  
     length 3.55371  
     axis 0 0 0   XYZ
    dof ry rz
    limits (-20.0 10.0)
           (0.0 20.0)
  end
  begin
     id 18 
     name lhumerus
     direction 1 -4.48964e-011 1.60116e-018   
     length 4.91377   
     axis -180 -30 -90   XYZ
    dof rx ry rz
    limits (-60.0 90.0)
           (-90.0 90.0)
           (-90.0 90.0)
  end
  begin
     id 19
     name lradius
     direction 1 -4.48989e-011 -8.93847e-027   
     length 3.00291   
     axis -180 -30 -90   XYZ
    dof rx
    limits (-10.0 170.0)
  end
  begin
     id 20
     name lwrist
     direction 1 -4.48932e-011 -7.31504e-027   
     length 1.50145   
     axis 5.74121e-015 90 90   XYZ
    dof ry
    limits (-180.0 0.0)
 end
  begin
     id 21 
     name lhand
     direction 1 -4.48971e-011 -1.46301e-026   
     length 0.450922   
     axis 9.33524e-015 90 90   XYZ
    dof rx rz
    limits (-90.0 90.0)
           (-45.0 45.0)
  end
  begin
     id 22 
     name lfingers
     direction 1 -4.49039e-011 -2.92602e-026   
     length 0.363545   
     axis 1.86705e-014 90 90   XYZ
    dof rx
    limits (0.0 90.0)
  end
  begin
     id 23
     name lthumb
     direction 0.707107 -6.34941e-011 0.707107   
     length 0.52198   
     axis -90 45 2.85299e-015   XYZ
    dof rx rz
    limits (-45.0 45.0)
           (-45.0 45.0)
  end
  begin
     id 24 
     name rclavicle
     direction -0.825079 0.56158 -0.0622297   
     length 3.39909  
     axis 0 0 0   XYZ 
    dof ry rz
    limits (-10.0 20.0)
           (-20.0 0.0)
  end
  begin
     id 25 
     name rhumerus
     direction -1 -4.48965e-011 1.61691e-027  
     length 4.86725   
     axis -180 30 90   XYZ
    dof rx ry rz
    limits (-90.0 60.0)
           (-90.0 90.0)
           (-90.0 90.0)
  end
  begin
     id 26 
     name rradius
     direction -1 -4.48964e-011 -2.25776e-027   
     length 3.17144   
     axis -180 30 90   XYZ
    dof rx
    limits (-10.0 170.0)
  end
  begin
     id 27 
     name rwrist
     direction -1 -4.48961e-011 -7.31504e-027   
     length 1.58572   
     axis 5.74121e-015 -90 -90   XYZ
    dof ry
    limits (-180.0 0.0)
  end
  begin
     id 28
     name rhand
     direction -1 -4.49013e-011 -1.46301e-026   
     length 0.419368   
     axis 9.33524e-015 -90 -90   XYZ
    dof rx rz
    limits (-90.0 90.0)
           (-45.0 45.0)
  end
  begin
     id 29
     name rfingers
     direction -1 -4.489e-011 -2.92602e-026   
     length 0.338105   
     axis 1.86705e-014 -90 -90   XYZ
    dof rx
    limits (0.0 90.0)
  end
  begin
     id 30
     name rthumb
     direction -0.707107 -6.35022e-011 0.707107   
     length 0.485453   
     axis -90 -45 -2.85299e-015   XYZ
    dof rx rz
    limits (-45.0 45.0)
           (-45.0 45.0)
  end
:hierarchy
  begin
    root lhipjoint rhipjoint lowerback
    lhipjoint lfemur
    lfemur ltibia
    ltibia lfoot
    lfoot ltoes
    rhipjoint rfemur
    rfemur rtibia
    rtibia rfoot
    rfoot rtoes
    lowerback upperback
    upperback thorax
    thorax lowerneck lclavicle rclavicle
    lowerneck upperneck
    upperneck head
    lclavicle lhumerus
    lhumerus lradius
    lradius lwrist
    lwrist lhand lthumb
    lhand lfingers
    rclavicle rhumerus
    rhumerus rradius
    rradius rwrist
    rwrist rhand rthumb
    rhand rfingers
  end

#!OML:ASF H:\Swim 2\Project 1\Capture day 1\Session 1\male.ASF
:FULLY-SPECIFIED
:DEGREES
163
root 7.73406 8.92744 12.5118 84.802 -1.20209 180.595
lowerback 14.5813 -0.667755 0.0357365
upperback -11.0923 -1.33668 1.4473
thorax -21.5094 -0.606471 2.24074
lowerneck -13.9587 -0.586987 -6.05817
upperneck 43.1837 -2.71414 3.721
head 18.9487 -3.68569 1.6561
rclavicle -1.31198e-014 2.36554e-014
rhumerus 58.0615 -58.9749 38.3257
rradius 36.1297
rwrist -55.9579
rhand -9.4698 -26.75
rfingers 7.12502
rthumb 16.4942 -56.0689
lclavicle -1.31198e-014 2.36554e-014
lhumerus 31.4752 37.47 -63.2647
lradius 39.7174
lwrist 69.1035
lhand -19.5917 9.83729
lfingers 7.12502
lthumb 6.73397 39.7102
rfemur 17.0449 10.4502 23.7294
rtibia 21.984
rfoot 1.45876 -11.5048
rtoes 17.6018
lfemur 21.2085 -9.11034 -31.6466
ltibia 24.9644
lfoot -4.90401 6.03382
ltoes -18.7625
164
root 7.73462 8.93258 12.5173 84.9275 -1.13218 180.623
lowerback 14.4115 -0.682428 0.089242
upperback -11.1171 -1.34988 1.47101
thorax -21.4236 -0.621922 2.23888
lowerneck -14.0049 -0.625931 -6.11293
upperneck 43.1674 -2.77157 3.76918
head 18.9591 -3.70579 1.67923
rclavicle -1.86858e-014 1.26228e-014
rhumerus 57.7632 -59.0929 38.5477
rradius 36.1455
rwrist -56.0099
rhand -9.4256 -26.7902
rfingers 7.12502
rthumb 16.5367 -56.1055
lclavicle -1.86858e-014 1.26228e-014
lhumerus 30.7636 37.0632 -64.2238
lradius 39.832
lwrist 70.3188
lhand -19.7944 9.7465
lfingers 7.12502
lthumb 6.53834 39.6256
rfemur 16.5412 10.482 23.7736
rtibia 21.8496
rfoot 1.54891 -11.7915
rtoes 16.8807
lfemur 21.6251 -8.99384 -31.585
ltibia 24.8622
lfoot -4.57806 5.37655
ltoes -19.2534
165
root 7.73544 8.93786 12.523 85.0518 -1.05373 180.655
lowerback 14.2411 -0.697492 0.150099
upperback -11.1434 -1.36207 1.49743
thorax -21.3396 -0.637806 2.2358
lowerneck -14.0577 -0.665036 -6.16259
upperneck 43.1502 -2.82958 3.81814
head 18.9708 -3.72429 1.70188
rclavicle 3.10104e-014 -8.44835e-015
rhumerus 57.4718 -59.2122 38.7703
rradius 36.1606
rwrist -56.0569
rhand -9.37953 -26.8328
rfingers 7.12502
rthumb 16.5811 -56.1444
lclavicle 3.10104e-014 -8.44835e-015
lhumerus 30.0864 36.696 -65.1176
lradius 39.9586
lwrist 71.6233
lhand -20.0099 9.64128
lfingers 7.12502
lthumb 6.33022 39.5267
rfemur 16.0877 10.4865 23.8208
rtibia 21.7053
rfoot 1.71889 -12.0575
rtoes 15.9684
lfemur 22.0046 -8.87863 -31.4995
ltibia 24.7748
lfoot -4.36458 4.70063
ltoes -19.6484
166
root 7.73644 8.9431 12.529 85.1859 -0.976571 180.689
lowerback 14.0566 -0.705686 0.212433
upperback -11.1688 -1.36467 1.5239
thorax -21.2447 -0.650018 2.22819
lowerneck -14.1422 -0.710343 -6.21888
upperneck 43.1411 -2.89256 3.87102
head 18.9977 -3.74396 1.72681
rclavicle -4.37326e-015 -1.67973e-014
rhumerus 56.9675 -59.3245 39.2442
rradius 36.1939
rwrist -56.2122
rhand -9.35953 -26.8792
rfingers 7.12502
rthumb 16.6003 -56.1892
lclavicle -4.37326e-015 -1.67973e-014
lhumerus 29.6637 36.6645 -65.5255
lradius 40.0798
lwrist 72.4876
lhand -20.126 9.61241
lfingers 7.12502
lthumb 6.21818 39.5011
rfemur 15.6647 10.4593 23.8551
rtibia 21.571
rfoot 1.95591 -12.2909
rtoes 14.9104
lfemur 22.3261 -8.77752 -31.4035
ltibia 24.7011
lfoot -4.16579 3.98984
ltoes -19.9646
167
root 7.7378 8.94799 12.5335 85.2781 -0.92451 180.731
lowerback 13.9137 -0.705968 0.248225
upperback -11.1795 -1.35939 1.54507
thorax -21.1588 -0.654098 2.2271
lowerneck -14.2515 -0.763981 -6.29651
upperneck 43.1389 -2.96248 3.93436
head 19.0378 -3.76747 1.75947
rclavicle 1.19271e-014 -5.46658e-015
rhumerus 56.2163 -59.4151 40.0139
rradius 36.2472
rwrist -56.505
rhand -9.37324 -26.9273
rfingers 7.12502
rthumb 16.5871 -56.2384
lclavicle 1.19271e-014 -5.46658e-015
lhumerus 29.6614 37.1313 -65.1838
lradius 40.1714
lwrist 72.5617
lhand -20.0629 9.72067
lfingers 7.12502
lthumb 6.27905 39.6076
rfemur 15.333 10.4092 23.8706
rtibia 21.456
rfoot 2.07383 -12.5512
rtoes 14.249
lfemur 22.6345 -8.6769 -31.3309
ltibia 24.6459
lfoot -3.98474 3.2595
ltoes -20.3272
168
root 7.7395 8.95241 12.5359 85.3192 -0.901103 180.779
lowerback 13.8222 -0.698714 0.251618
upperback -11.1732 -1.34706 1.56161
thorax -21.0854 -0.649191 2.23719
lowerneck -14.3861 -0.824173 -6.39895
upperneck 43.1447 -3.03469 4.00769
head 19.0917 -3.79368 1.80121
rclavicle -5.1684e-015 2.08724e-015
rhumerus 55.2717 -59.4865 41.0208
rradius 36.3157
rwrist -56.8973
rhand -9.41012 -26.9805
rfingers 7.12502
rthumb 16.5516 -56.2946
lclavicle -5.1684e-015 2.08724e-015
lhumerus 30.1412 38.1234 -64.0196
lradius 40.2249
lwrist 71.7415
lhand -19.7929 9.98182
lfingers 7.12502
lthumb 6.53971 39.8608
rfemur 15.1015 10.3412 23.8688
rtibia 21.3702
rfoot 2.02494 -12.8501
rtoes 14.1647
lfemur 22.9311 -8.58087 -31.29
ltibia 24.6101
lfoot -3.82532 2.54164
ltoes -20.665
169
root 7.7412 8.95632 12.5378 85.3626 -0.886863 180.825
lowerback 13.7278 -0.684462 0.245963
upperback -11.1654 -1.3265 1.57945
thorax -21.0082 -0.639191 2.25114
lowerneck -14.5474 -0.888674 -6.52018
upperneck 43.1607 -3.10525 4.0855
head 19.1608 -3.82114 1.84895
rclavicle -1.03368e-014 -2.18663e-015
rhumerus 54.1936 -59.543 42.1941
rradius 36.3954
rwrist -57.3797
rhand -9.47473 -27.02
rfingers 7.12502
rthumb 16.4894 -56.3393
lclavicle -1.03368e-014 -2.18663e-015
lhumerus 31.061 39.5046 -62.1716
lradius 40.2419
lwrist 70.1921
lhand -19.3393 10.3671
lfingers 7.12502
lthumb 6.97766 40.2321
rfemur 14.9072 10.257 23.8564
rtibia 21.3181
rfoot 2.022 -13.1094
rtoes 14.0462
lfemur 23.1489 -8.49065 -31.2483
ltibia 24.5948
lfoot -3.67666 1.85661
ltoes -20.9841
170
root 7.74298 8.95944 12.5385 85.3926 -0.887716 180.868
lowerback 13.6491 -0.667584 0.220795
upperback -11.1558 -1.30577 1.59819
thorax -20.9392 -0.625704 2.27758
lowerneck -14.7137 -0.950072 -6.65464
upperneck 43.1809 -3.16735 4.16958
head 19.2343 -3.84674 1.90392
rclavicle 0 3.77691e-015
rhumerus 53.1949 -59.596 43.2953
rradius 36.4676
rwrist -57.8216
rhand -9.5286 -27.0595
rfingers 7.12502
rthumb 16.4376 -56.3831
lclavicle 0 3.77691e-015
lhumerus 32.3201 41.0725 -59.872
lradius 40.2253
lwrist 68.2077
lhand -18.7531 10.8163
lfingers 7.12502
lthumb 7.54347 40.6618
rfemur 14.7724 10.1615 23.8327
rtibia 21.2953
rfoot 2.01415 -13.3444
rtoes 14.0704
lfemur 23.297 -8.40403 -31.216
ltibia 24.6062
lfoot -3.51622 1.24498
ltoes -21.094
171
root 7.7448 8.96177 12.538 85.4069 -0.904226 180.905
lowerback 13.5909 -0.650478 0.175982
upperback -11.1479 -1.28895 1.61655
thorax -20.8866 -0.610633 2.31672
lowerneck -14.866 -1.00417 -6.79843
upperneck 43.1992 -3.21778 4.26012
head 19.3023 -3.86905 1.96621
rclavicle -1.66979e-014 2.98177e-016
rhumerus 52.4129 -59.6549 44.1688
rradius 36.5206
rwrist -58.1515
rhand -9.55594 -27.0963
rfingers 7.12502
rthumb 16.4112 -56.4221
lclavicle -1.66979e-014 2.98177e-016
lhumerus 33.815 42.6459 -57.3408
lradius 40.1779
lwrist 66.071
lhand -18.0959 11.267
lfingers 7.12502
lthumb 8.17774 41.0888
rfemur 14.7009 10.0588 23.7984
rtibia 21.2997
rfoot 1.99976 -13.5415
rtoes 14.1973
lfemur 23.3736 -8.32373 -31.1973
ltibia 24.6446
lfoot -3.34422 0.734032
ltoes -21.0214
172
root 7.74669 8.96285 12.5353 85.4039 -0.933256 180.936
lowerback 13.5569 -0.634126 0.113482
upperback -11.1432 -1.27695 1.6358
thorax -20.855 -0.594488 2.3695
lowerneck -14.9922 -1.04783 -6.94578
upperneck 43.2099 -3.25294 4.35332
head 19.3567 -3.88615 2.03372
rclavicle 6.75868e-015 1.0138e-014
rhumerus 51.9208 -59.7269 44.7343
rradius 36.5507
rwrist -58.3426
rhand -9.55281 -27.1346
rfingers 7.12502
rthumb 16.4142 -56.4601
lclavicle 6.75868e-015 1.0138e-014
lhumerus 35.3586 44.0646 -54.854
lradius 40.115
lwrist 64.0685
lhand -17.4414 11.6719
lfingers 7.12502
lthumb 8.80937 41.468
rfemur 14.6941 9.94062 23.7559
rtibia 21.3302
rfoot 2.01055 -13.6727
rtoes 14.2176
lfemur 23.3789 -8.25577 -31.1935
ltibia 24.7087
lfoot -3.20618 0.358789
ltoes -20.7567
